<?xml version="1.0" standalone="no"?>
<!DOCTYPE svg PUBLIC "-//W3C//DTD SVG 20010904//EN"
 "http://www.w3.org/TR/2001/REC-SVG-20010904/DTD/svg10.dtd">
<svg version="1.0" xmlns="http://www.w3.org/2000/svg"
 width="16.000000pt" height="16.000000pt" viewBox="0 0 16.000000 16.000000"
 preserveAspectRatio="xMidYMid meet">
<metadata>
Created by potrace 1.11, written by Peter Selinger 2001-2013
</metadata>
<g transform="translate(0.000000,16.000000) scale(0.004706,-0.004706)"
fill="#000000" stroke="none">
<path d="M475 3297 c-66 -16 -120 -48 -138 -84 -16 -31 -28 -236 -42 -717 -3
-104 -7 -192 -9 -195 -3 -4 -7 -79 -10 -166 -4 -88 -9 -191 -12 -230 -3 -38
-7 -104 -9 -145 -2 -41 -6 -109 -9 -150 -12 -162 -16 -257 -22 -565 -3 -176
-10 -365 -15 -420 -4 -55 -11 -131 -13 -170 -3 -38 -8 -92 -11 -120 -12 -107
37 -207 122 -246 38 -17 57 -20 102 -14 31 4 108 8 171 10 63 1 165 8 225 14
61 6 133 13 160 16 28 2 66 8 85 11 19 4 163 5 320 3 157 -2 427 -2 600 0 444
4 569 4 700 -2 64 -3 137 -1 165 5 28 6 59 9 70 8 33 -2 38 -2 85 10 25 7 54
13 64 16 44 9 123 75 150 124 15 29 42 300 32 327 -4 9 -6 78 -6 153 1 74 2
187 2 250 1 114 -14 326 -33 470 -14 110 -22 405 -25 936 -2 477 -8 653 -22
663 -4 4 -7 27 -7 53 1 26 -3 44 -7 42 -4 -3 -8 7 -8 23 0 34 -14 58 -28 49
-6 -4 -16 3 -22 14 -6 11 -15 18 -20 15 -5 -3 -21 2 -35 11 -23 15 -43 16
-163 9 -75 -4 -153 -8 -172 -10 -216 -19 -657 -37 -900 -36 -501 2 -911 12
-974 25 -39 8 -91 14 -116 14 -25 1 -74 3 -110 6 -36 2 -88 -1 -115 -7z m2365
-191 l115 -1 -5 -55 c-3 -30 -4 -190 -2 -355 1 -165 4 -523 6 -795 4 -486 7
-579 26 -810 22 -269 25 -326 23 -539 -2 -246 -2 -245 -63 -237 -84 11 -178
18 -220 15 -25 -1 -70 -2 -100 -1 -167 5 -313 -2 -359 -16 -19 -6 -38 -9 -43
-6 -5 3 -115 7 -246 9 -130 2 -275 7 -322 10 -143 11 -618 8 -745 -5 -66 -6
-138 -11 -160 -11 -37 1 -254 -29 -316 -43 l-26 -6 4 123 c3 67 11 192 18 277
19 238 25 712 16 1295 -2 127 0 349 5 495 4 146 7 342 6 435 -1 94 0 180 3
191 5 21 9 22 122 17 180 -7 1162 -5 1298 2 66 4 266 9 445 11 179 3 330 7
335 9 6 2 24 1 40 -2 17 -4 82 -7 145 -7z"/>
<path d="M2675 3034 c-33 -14 -69 -29 -80 -34 -11 -4 -29 -17 -40 -27 -11 -10
-31 -19 -43 -20 -32 -2 -69 -28 -77 -53 -3 -11 -10 -20 -15 -20 -5 0 -21 -37
-36 -82 -14 -46 -30 -88 -35 -93 -4 -6 -17 -42 -27 -80 -33 -117 -74 -235 -81
-235 -3 0 -22 20 -41 45 -19 25 -52 67 -72 93 -21 25 -38 54 -38 62 0 9 9 43
21 75 16 46 20 76 17 125 -6 87 -29 130 -68 130 -31 0 -59 -22 -61 -48 -1 -24
2 -82 6 -117 9 -69 -3 -71 -64 -11 -66 65 -106 79 -135 47 -19 -20 -19 -23 -3
-57 10 -20 31 -47 47 -61 16 -13 43 -45 60 -70 29 -42 30 -48 19 -77 -7 -17
-19 -39 -28 -49 -8 -10 -24 -33 -36 -52 -11 -18 -55 -80 -99 -137 -76 -100
-135 -202 -174 -300 l-18 -48 -35 47 c-19 25 -42 60 -53 77 -137 227 -141 234
-197 347 -27 53 -54 116 -60 141 -11 41 -10 47 14 89 15 24 37 55 49 69 57 63
128 165 128 185 0 59 -30 40 -148 -94 -12 -14 -32 -41 -43 -58 -11 -18 -23
-33 -26 -33 -2 0 -3 29 -2 63 1 35 -1 69 -5 75 -4 6 -3 20 2 29 14 27 2 82
-21 98 -36 25 -90 3 -109 -45 -10 -26 -14 -132 -5 -147 3 -4 8 -37 12 -73 4
-35 11 -75 16 -88 16 -41 10 -64 -36 -138 -25 -39 -45 -75 -45 -78 0 -4 -8
-18 -17 -33 -10 -14 -18 -31 -19 -37 -1 -6 -11 -28 -21 -49 l-19 -37 -21 28
c-72 98 -138 323 -172 597 -18 137 -18 137 -44 129 -12 -4 -26 -12 -30 -18
-10 -14 1 -234 14 -296 37 -168 73 -288 111 -370 17 -36 37 -69 44 -73 8 -4
14 -14 14 -21 0 -7 9 -21 20 -31 23 -20 27 -76 9 -122 -15 -40 -19 -92 -23
-303 -2 -102 0 -207 6 -233 9 -42 7 -58 -12 -110 -13 -34 -29 -84 -36 -112 -7
-27 -24 -84 -39 -125 -21 -61 -26 -98 -29 -200 -5 -145 -14 -246 -28 -310 -5
-25 -10 -53 -11 -62 -1 -10 -4 -18 -8 -18 -4 0 -7 -10 -7 -22 0 -13 -1 -27 -2
-33 -5 -22 1 -33 24 -48 22 -15 26 -15 49 3 24 19 62 88 78 143 11 38 22 186
20 267 -4 217 -1 291 14 365 23 110 28 117 53 69 44 -88 58 -112 108 -189 61
-94 207 -242 316 -319 16 -11 16 -16 2 -62 -18 -57 -19 -63 -28 -127 -8 -53
-1 -87 18 -87 12 0 106 175 106 197 0 24 21 23 71 -2 28 -15 57 -24 65 -21 25
10 15 35 -23 56 -44 23 -73 44 -73 54 0 3 13 34 29 68 16 35 52 116 81 180 29
65 55 118 59 118 7 0 86 -123 131 -205 19 -33 54 -91 78 -129 l45 -70 -11 -85
c-9 -62 -9 -88 0 -98 16 -19 30 -3 52 57 18 49 19 50 37 34 11 -9 19 -22 19
-28 0 -14 86 -96 100 -96 21 0 8 38 -32 99 -87 129 -82 115 -68 184 15 68 45
156 90 257 16 36 47 112 70 170 23 58 45 108 48 112 4 4 25 -23 46 -60 36 -60
74 -125 193 -320 21 -35 57 -92 80 -125 24 -34 55 -84 69 -112 15 -27 43 -75
63 -105 20 -30 50 -82 66 -114 17 -33 49 -78 71 -102 23 -23 47 -50 52 -60 10
-18 12 -18 28 -2 17 17 17 20 -6 60 -12 24 -29 50 -35 58 -7 8 -25 38 -39 65
-14 28 -34 64 -44 80 -10 17 -31 53 -46 80 -16 28 -50 82 -75 122 -49 76 -80
128 -206 338 -195 326 -185 279 -96 462 96 194 111 234 111 292 0 67 -21 131
-74 222 l-45 77 24 83 c14 45 30 88 36 96 7 7 9 16 6 19 -3 3 12 54 33 114 22
59 36 111 33 114 -4 3 -2 6 3 6 6 0 16 16 23 35 7 19 17 35 22 35 5 0 9 8 9
18 0 41 139 172 183 172 13 0 46 32 61 57 8 15 -3 43 -18 43 -6 0 -38 -12 -71
-26z m-1505 -644 c10 -19 36 -70 59 -114 22 -43 41 -85 41 -93 0 -8 16 -33 35
-56 19 -22 35 -46 35 -52 0 -6 13 -24 28 -41 15 -16 41 -51 57 -79 15 -27 46
-72 68 -98 l40 -48 -15 -92 c-8 -54 -11 -108 -7 -132 4 -22 13 -69 19 -105 7
-36 26 -92 42 -124 33 -65 34 -57 -20 -151 -57 -100 -92 -168 -117 -227 -15
-38 -31 -68 -36 -68 -16 0 -126 109 -206 205 -88 105 -152 211 -205 340 l-31
76 37 117 c61 197 67 329 20 440 l-27 64 17 56 c16 52 95 217 120 251 8 10 12
8 20 -10 5 -13 17 -40 26 -59z m916 8 c32 -40 72 -88 88 -106 l31 -33 -22 -62
c-49 -140 -77 -300 -78 -442 0 -102 2 -114 28 -162 l29 -52 -17 -53 c-10 -29
-23 -62 -29 -73 -7 -11 -18 -40 -25 -65 -7 -25 -30 -82 -52 -126 -38 -80 -42
-94 -74 -224 -22 -91 -25 -99 -34 -80 -3 9 -14 27 -24 40 -10 14 -60 97 -112
184 l-93 159 18 32 c27 47 43 141 35 199 -8 62 -50 190 -73 225 -10 14 -25 43
-34 63 l-17 37 73 143 c41 78 97 171 125 205 28 34 51 66 51 72 0 6 4 11 8 11
5 0 19 19 32 41 28 51 93 139 101 139 4 0 33 -33 65 -72z m220 -309 c22 -43
44 -118 44 -152 0 -25 -100 -264 -124 -295 -17 -23 -30 17 -28 89 1 90 68 389
86 389 3 0 13 -14 22 -31z m-1323 -138 c9 -29 14 -57 11 -62 -3 -5 -1 -9 4 -9
15 0 -4 -91 -32 -156 l-25 -59 -1 71 c0 108 12 286 20 277 4 -4 14 -32 23 -62z
m635 -263 c49 -97 65 -203 41 -265 -11 -27 -12 -27 -35 42 -14 41 -27 106 -31
158 -6 88 2 110 25 65z"/>
</g>
</svg>
